<svg xmlns="http://www.w3.org/2000/svg" viewBox="0 0 960 540">
  <defs>
    <linearGradient id="bg01" x1="0" y1="0" x2="1" y2="1">
      <stop offset="0%" stop-color="#020617"/>
      <stop offset="40%" stop-color="#0b1120"/>
      <stop offset="100%" stop-color="#020617"/>
    </linearGradient>
  </defs>
  <rect width="960" height="540" fill="url(#bg01)"/>
  <rect x="40" y="40" width="880" height="64" rx="16" ry="16" fill="#020617" stroke="#1f2937"/>
  <text x="64" y="78" fill="#e5e7eb" font-family="system-ui, -apple-system, BlinkMacSystemFont" font-size="20" font-weight="600">
    Default PD Model Results
  </text>
  <text x="64" y="100" fill="#9ca3af" font-family="system-ui, -apple-system, BlinkMacSystemFont" font-size="12">
    Train &lt; 2015 • evaluate 2016 holdout • decline-top-X% by predicted PD
  </text>

  <!-- KPI row -->
  <g transform="translate(56 128)">
    <rect x="0" y="0" width="200" height="72" rx="12" ry="12" fill="#020617" stroke="#1f2937"/>
    <rect x="220" y="0" width="200" height="72" rx="12" ry="12" fill="#020617" stroke="#1f2937"/>
    <rect x="440" y="0" width="200" height="72" rx="12" ry="12" fill="#020617" stroke="#1f2937"/>
    <rect x="660" y="0" width="200" height="72" rx="12" ry="12" fill="#020617" stroke="#1f2937"/>
    <text x="16" y="26" fill="#9ca3af" font-size="11" font-family="system-ui">Defaults avoided</text>
    <text x="16" y="54" fill="#38bdf8" font-size="20" font-family="system-ui" font-weight="600">34,664</text>
    <text x="236" y="26" fill="#9ca3af" font-size="11" font-family="system-ui">Loss avoided</text>
    <text x="236" y="54" fill="#22c55e" font-size="20" font-family="system-ui" font-weight="600">$430M</text>
    <text x="456" y="26" fill="#9ca3af" font-size="11" font-family="system-ui">Total profit</text>
    <text x="456" y="54" fill="#a855f7" font-size="20" font-family="system-ui" font-weight="600">$68M</text>
    <text x="676" y="26" fill="#9ca3af" font-size="11" font-family="system-ui">Δ Profit vs baseline</text>
    <text x="676" y="54" fill="#22c55e" font-size="20" font-family="system-ui" font-weight="600">$153M</text>
  </g>

  <!-- bar chart -->
  <g transform="translate(72 248)">
    <rect x="0" y="112" width="32" height="64" fill="#1f2937"/>
    <rect x="52" y="96" width="32" height="80" fill="#1f2937"/>
    <rect x="104" y="80" width="32" height="96" fill="#1f2937"/>
    <rect x="156" y="64" width="32" height="112" fill="#1f2937"/>
    <rect x="208" y="44" width="32" height="132" fill="#1f2937"/>
    <rect x="260" y="28" width="32" height="148" fill="#1f2937"/>
    <rect x="312" y="0" width="32" height="176" fill="#1f2937"/>
    <text x="0" y="196" fill="#64748b" font-size="10" font-family="system-ui">PD decile →</text>
  </g>
</svg>

