<svg xmlns="http://www.w3.org/2000/svg" viewBox="0 0 960 540">
  <defs>
    <linearGradient id="bg" x1="0" y1="0" x2="1" y2="1">
      <stop offset="0%" stop-color="#020617"/>
      <stop offset="50%" stop-color="#0f172a"/>
      <stop offset="100%" stop-color="#0b1120"/>
    </linearGradient>
  </defs>
  <rect width="960" height="540" fill="url(#bg)"/>
  <rect x="56" y="80" rx="18" ry="18" width="848" height="112" fill="#020617" stroke="#1f2937" stroke-width="2"/>
  <rect x="56" y="224" rx="18" ry="18" width="560" height="228" fill="#020617" stroke="#1f2937" stroke-width="2"/>
  <rect x="644" y="224" rx="18" ry="18" width="260" height="228" fill="#020617" stroke="#1f2937" stroke-width="2"/>

  <!-- top KPI boxes -->
  <rect x="88" y="104" width="176" height="64" rx="10" ry="10" fill="#020617" stroke="#1f2937"/>
  <rect x="288" y="104" width="176" height="64" rx="10" ry="10" fill="#020617" stroke="#1f2937"/>
  <rect x="488" y="104" width="176" height="64" rx="10" ry="10" fill="#020617" stroke="#1f2937"/>
  <rect x="688" y="104" width="176" height="64" rx="10" ry="10" fill="#020617" stroke="#1f2937"/>

  <!-- bar chart -->
  <g transform="translate(96 248)">
    <rect x="0" y="96" width="32" height="64" fill="#1f2937"/>
    <rect x="52" y="80" width="32" height="80" fill="#1f2937"/>
    <rect x="104" y="60" width="32" height="100" fill="#1f2937"/>
    <rect x="156" y="44" width="32" height="116" fill="#1f2937"/>
    <rect x="208" y="24" width="32" height="136" fill="#1f2937"/>
    <rect x="260" y="8" width="32" height="152" fill="#1f2937"/>
    <rect x="312" y="0" width="32" height="160" fill="#1f2937"/>
  </g>

  <!-- profit curve -->
  <path d="M676 420 C 712 260 792 216 876 260" fill="none" stroke="#22c55e" stroke-width="4"/>

  <text x="72" y="60" fill="#e5e7eb" font-family="system-ui, -apple-system, BlinkMacSystemFont" font-size="20" font-weight="600">
    LendingClub PD Risk Console
  </text>
  <text x="72" y="82" fill="#9ca3af" font-family="system-ui, -apple-system, BlinkMacSystemFont" font-size="13">
    Logistic regression PD model • policy simulation • profit impact curve
  </text>
</svg>

