<svg xmlns="http://www.w3.org/2000/svg" width="1280" height="720" viewBox="0 0 1280 720">
<rect width="1280" height="720" fill="#0b0f17"/>
<text x="40" y="60" font-family="Inter, system-ui, -apple-system, Segoe UI, Roboto, Arial, sans-serif" font-size="24" font-weight="400" fill="#f1f5f9" text-anchor="start">⚾</text>
<text x="76" y="62" font-family="Inter, system-ui, -apple-system, Segoe UI, Roboto, Arial, sans-serif" font-size="27" font-weight="700" fill="#f1f5f9" text-anchor="start">MLB League Overview</text>
<text x="40" y="90" font-family="Inter, system-ui, -apple-system, Segoe UI, Roboto, Arial, sans-serif" font-size="13" font-weight="400" fill="#64748b" text-anchor="start">AI-built dashboard · governed semantic layer over the live MLB warehouse</text>
<rect x="40" y="108" width="288" height="96" rx="14" fill="#0e1421" stroke="#1e293b" stroke-width="1"/>
<text x="56" y="134" font-family="Inter, system-ui, -apple-system, Segoe UI, Roboto, Arial, sans-serif" font-size="10.5" font-weight="600" fill="#64748b" text-anchor="start" letter-spacing="0.8" style="text-transform:uppercase">Wins leader</text>
<text x="56" y="168" font-family="Inter, system-ui, -apple-system, Segoe UI, Roboto, Arial, sans-serif" font-size="33" font-weight="600" fill="#f8fafc" text-anchor="start">64</text>
<text x="56" y="190" font-family="Inter, system-ui, -apple-system, Segoe UI, Roboto, Arial, sans-serif" font-size="11.5" fill="#94a3b8"><tspan fill="#cbd5e1">L.A. Dodgers</tspan> · leads MLB</text>
<rect x="344" y="108" width="288" height="96" rx="14" fill="#0e1421" stroke="#1e293b" stroke-width="1"/>
<text x="360" y="134" font-family="Inter, system-ui, -apple-system, Segoe UI, Roboto, Arial, sans-serif" font-size="10.5" font-weight="600" fill="#64748b" text-anchor="start" letter-spacing="0.8" style="text-transform:uppercase">Best run diff</text>
<text x="360" y="168" font-family="Inter, system-ui, -apple-system, Segoe UI, Roboto, Arial, sans-serif" font-size="33" font-weight="600" fill="#f8fafc" text-anchor="start">+121</text>
<text x="360" y="190" font-family="Inter, system-ui, -apple-system, Segoe UI, Roboto, Arial, sans-serif" font-size="11.5" fill="#94a3b8"><tspan fill="#cbd5e1">N.Y. Yankees</tspan> · run differential</text>
<rect x="648" y="108" width="288" height="96" rx="14" fill="#0e1421" stroke="#1e293b" stroke-width="1"/>
<text x="664" y="134" font-family="Inter, system-ui, -apple-system, Segoe UI, Roboto, Arial, sans-serif" font-size="10.5" font-weight="600" fill="#64748b" text-anchor="start" letter-spacing="0.8" style="text-transform:uppercase">Top offense</text>
<text x="664" y="168" font-family="Inter, system-ui, -apple-system, Segoe UI, Roboto, Arial, sans-serif" font-size="33" font-weight="600" fill="#f8fafc" text-anchor="start">372</text>
<text x="664" y="190" font-family="Inter, system-ui, -apple-system, Segoe UI, Roboto, Arial, sans-serif" font-size="11.5" fill="#94a3b8"><tspan fill="#cbd5e1">L.A. Dodgers</tspan> · runs scored</text>
<rect x="952" y="108" width="288" height="96" rx="14" fill="#0e1421" stroke="#1e293b" stroke-width="1"/>
<text x="968" y="134" font-family="Inter, system-ui, -apple-system, Segoe UI, Roboto, Arial, sans-serif" font-size="10.5" font-weight="600" fill="#64748b" text-anchor="start" letter-spacing="0.8" style="text-transform:uppercase">Best win %</text>
<text x="968" y="168" font-family="Inter, system-ui, -apple-system, Segoe UI, Roboto, Arial, sans-serif" font-size="33" font-weight="600" fill="#f8fafc" text-anchor="start">.627</text>
<text x="968" y="190" font-family="Inter, system-ui, -apple-system, Segoe UI, Roboto, Arial, sans-serif" font-size="11.5" fill="#94a3b8"><tspan fill="#cbd5e1">Baltimore</tspan> · win percentage</text>
<text x="40" y="236" font-family="Inter, system-ui, -apple-system, Segoe UI, Roboto, Arial, sans-serif" font-size="11" font-weight="700" fill="#94a3b8" text-anchor="start" letter-spacing="1.5" style="text-transform:uppercase">Standings</text>
<line x1="122.39999999999999" y1="232" x2="1240" y2="232" stroke="#1e293b" stroke-width="1"/>
<rect x="40" y="252" width="1200" height="176" rx="14" fill="#0e1421" stroke="#1e293b" stroke-width="1"/>
<text x="60" y="278" font-family="Inter, system-ui, -apple-system, Segoe UI, Roboto, Arial, sans-serif" font-size="12.5" font-weight="500" fill="#e2e8f0" text-anchor="start">Wins — top 10 teams</text>
<line x1="92" y1="404.0" x2="1216" y2="404.0" stroke="#182231" stroke-width="1" stroke-dasharray="3 3"/>
<text x="84" y="407" font-family="Inter, system-ui, -apple-system, Segoe UI, Roboto, Arial, sans-serif" font-size="9" font-weight="400" fill="#475569" text-anchor="end">0</text>
<line x1="92" y1="373.4" x2="1216" y2="373.4" stroke="#182231" stroke-width="1" stroke-dasharray="3 3"/>
<text x="84" y="376.4117647058824" font-family="Inter, system-ui, -apple-system, Segoe UI, Roboto, Arial, sans-serif" font-size="9" font-weight="400" fill="#475569" text-anchor="end">20</text>
<line x1="92" y1="342.8" x2="1216" y2="342.8" stroke="#182231" stroke-width="1" stroke-dasharray="3 3"/>
<text x="84" y="345.8235294117647" font-family="Inter, system-ui, -apple-system, Segoe UI, Roboto, Arial, sans-serif" font-size="9" font-weight="400" fill="#475569" text-anchor="end">40</text>
<line x1="92" y1="312.2" x2="1216" y2="312.2" stroke="#182231" stroke-width="1" stroke-dasharray="3 3"/>
<text x="84" y="315.2352941176471" font-family="Inter, system-ui, -apple-system, Segoe UI, Roboto, Arial, sans-serif" font-size="9" font-weight="400" fill="#475569" text-anchor="end">60</text>
<path d="M117.2 404 L117.2 310.11764705882354 Q117.2 306.11764705882354 121.2 306.11764705882354 L175.2 306.11764705882354 Q179.2 306.11764705882354 179.2 310.11764705882354 L179.2 404 Z" fill="#22d3ee" fill-opacity="0.950"/>
<text x="148.2" y="420" font-family="Inter, system-ui, -apple-system, Segoe UI, Roboto, Arial, sans-serif" font-size="9.5" font-weight="400" fill="#64748b" text-anchor="middle">LAD</text>
<path d="M229.60000000000002 404 L229.60000000000002 313.1764705882353 Q229.60000000000002 309.1764705882353 233.60000000000002 309.1764705882353 L287.6 309.1764705882353 Q291.6 309.1764705882353 291.6 313.1764705882353 L291.6 404 Z" fill="#22d3ee" fill-opacity="0.889"/>
<text x="260.6" y="420" font-family="Inter, system-ui, -apple-system, Segoe UI, Roboto, Arial, sans-serif" font-size="9.5" font-weight="400" fill="#64748b" text-anchor="middle">NYY</text>
<path d="M342 404 L342 317.7647058823529 Q342 313.7647058823529 346 313.7647058823529 L400 313.7647058823529 Q404 313.7647058823529 404 317.7647058823529 L404 404 Z" fill="#22d3ee" fill-opacity="0.828"/>
<text x="373" y="420" font-family="Inter, system-ui, -apple-system, Segoe UI, Roboto, Arial, sans-serif" font-size="9.5" font-weight="400" fill="#64748b" text-anchor="middle">HOU</text>
<path d="M454.40000000000003 404 L454.40000000000003 320.8235294117647 Q454.40000000000003 316.8235294117647 458.40000000000003 316.8235294117647 L512.4000000000001 316.8235294117647 Q516.4000000000001 316.8235294117647 516.4000000000001 320.8235294117647 L516.4000000000001 404 Z" fill="#22d3ee" fill-opacity="0.767"/>
<text x="485.40000000000003" y="420" font-family="Inter, system-ui, -apple-system, Segoe UI, Roboto, Arial, sans-serif" font-size="9.5" font-weight="400" fill="#64748b" text-anchor="middle">ATL</text>
<path d="M566.8000000000001 404 L566.8000000000001 323.88235294117646 Q566.8000000000001 319.88235294117646 570.8000000000001 319.88235294117646 L624.8000000000001 319.88235294117646 Q628.8000000000001 319.88235294117646 628.8000000000001 323.88235294117646 L628.8000000000001 404 Z" fill="#22d3ee" fill-opacity="0.706"/>
<text x="597.8000000000001" y="420" font-family="Inter, system-ui, -apple-system, Segoe UI, Roboto, Arial, sans-serif" font-size="9.5" font-weight="400" fill="#64748b" text-anchor="middle">PHI</text>
<path d="M679.2 404 L679.2 325.4117647058824 Q679.2 321.4117647058824 683.2 321.4117647058824 L737.2 321.4117647058824 Q741.2 321.4117647058824 741.2 325.4117647058824 L741.2 404 Z" fill="#22d3ee" fill-opacity="0.644"/>
<text x="710.2" y="420" font-family="Inter, system-ui, -apple-system, Segoe UI, Roboto, Arial, sans-serif" font-size="9.5" font-weight="400" fill="#64748b" text-anchor="middle">BAL</text>
<path d="M791.6000000000001 404 L791.6000000000001 328.47058823529414 Q791.6000000000001 324.47058823529414 795.6000000000001 324.47058823529414 L849.6000000000001 324.47058823529414 Q853.6000000000001 324.47058823529414 853.6000000000001 328.47058823529414 L853.6000000000001 404 Z" fill="#22d3ee" fill-opacity="0.583"/>
<text x="822.6000000000001" y="420" font-family="Inter, system-ui, -apple-system, Segoe UI, Roboto, Arial, sans-serif" font-size="9.5" font-weight="400" fill="#64748b" text-anchor="middle">MIL</text>
<path d="M904.0000000000001 404 L904.0000000000001 330 Q904.0000000000001 326 908.0000000000001 326 L962.0000000000001 326 Q966.0000000000001 326 966.0000000000001 330 L966.0000000000001 404 Z" fill="#22d3ee" fill-opacity="0.522"/>
<text x="935.0000000000001" y="420" font-family="Inter, system-ui, -apple-system, Segoe UI, Roboto, Arial, sans-serif" font-size="9.5" font-weight="400" fill="#64748b" text-anchor="middle">SD</text>
<path d="M1016.4000000000001 404 L1016.4000000000001 331.52941176470586 Q1016.4000000000001 327.52941176470586 1020.4000000000001 327.52941176470586 L1074.4 327.52941176470586 Q1078.4 327.52941176470586 1078.4 331.52941176470586 L1078.4 404 Z" fill="#22d3ee" fill-opacity="0.461"/>
<text x="1047.4" y="420" font-family="Inter, system-ui, -apple-system, Segoe UI, Roboto, Arial, sans-serif" font-size="9.5" font-weight="400" fill="#64748b" text-anchor="middle">CLE</text>
<path d="M1128.8 404 L1128.8 333.05882352941177 Q1128.8 329.05882352941177 1132.8 329.05882352941177 L1186.8 329.05882352941177 Q1190.8 329.05882352941177 1190.8 333.05882352941177 L1190.8 404 Z" fill="#22d3ee" fill-opacity="0.400"/>
<text x="1159.8" y="420" font-family="Inter, system-ui, -apple-system, Segoe UI, Roboto, Arial, sans-serif" font-size="9.5" font-weight="400" fill="#64748b" text-anchor="middle">SEA</text>
<text x="40" y="452" font-family="Inter, system-ui, -apple-system, Segoe UI, Roboto, Arial, sans-serif" font-size="11" font-weight="700" fill="#94a3b8" text-anchor="start" letter-spacing="1.5" style="text-transform:uppercase">Offense &amp; pitching</text>
<line x1="190.79999999999998" y1="448" x2="1240" y2="448" stroke="#1e293b" stroke-width="1"/>
<rect x="40" y="468" width="592" height="192" rx="14" fill="#0e1421" stroke="#1e293b" stroke-width="1"/>
<text x="60" y="494" font-family="Inter, system-ui, -apple-system, Segoe UI, Roboto, Arial, sans-serif" font-size="12.5" font-weight="500" fill="#e2e8f0" text-anchor="start">Runs scored — top teams</text>
<text x="108" y="522.5" font-family="Inter, system-ui, -apple-system, Segoe UI, Roboto, Arial, sans-serif" font-size="10" font-weight="400" fill="#94a3b8" text-anchor="end">LAD</text>
<path d="M118 512 L558.4675324675325 512 Q562.4675324675325 512 562.4675324675325 516 L562.4675324675325 521 Q562.4675324675325 525 558.4675324675325 525 L118 525 Z" fill="#22d3ee" fill-opacity="0.950"/>
<text x="570.4675324675325" y="522.5" font-family="Inter, system-ui, -apple-system, Segoe UI, Roboto, Arial, sans-serif" font-size="10" fill="#94a3b8" style="font-variant-numeric:tabular-nums">372</text>
<text x="108" y="545.5" font-family="Inter, system-ui, -apple-system, Segoe UI, Roboto, Arial, sans-serif" font-size="10" font-weight="400" fill="#94a3b8" text-anchor="end">NYY</text>
<path d="M118 535 L541.7402597402597 535 Q545.7402597402597 535 545.7402597402597 539 L545.7402597402597 544 Q545.7402597402597 548 541.7402597402597 548 L118 548 Z" fill="#22d3ee" fill-opacity="0.840"/>
<text x="553.7402597402597" y="545.5" font-family="Inter, system-ui, -apple-system, Segoe UI, Roboto, Arial, sans-serif" font-size="10" fill="#94a3b8" style="font-variant-numeric:tabular-nums">358</text>
<text x="108" y="568.5" font-family="Inter, system-ui, -apple-system, Segoe UI, Roboto, Arial, sans-serif" font-size="10" font-weight="400" fill="#94a3b8" text-anchor="end">ATL</text>
<path d="M118 558 L521.4285714285713 558 Q525.4285714285713 558 525.4285714285713 562 L525.4285714285713 567 Q525.4285714285713 571 521.4285714285713 571 L118 571 Z" fill="#22d3ee" fill-opacity="0.730"/>
<text x="533.4285714285713" y="568.5" font-family="Inter, system-ui, -apple-system, Segoe UI, Roboto, Arial, sans-serif" font-size="10" fill="#94a3b8" style="font-variant-numeric:tabular-nums">341</text>
<text x="108" y="591.5" font-family="Inter, system-ui, -apple-system, Segoe UI, Roboto, Arial, sans-serif" font-size="10" font-weight="400" fill="#94a3b8" text-anchor="end">HOU</text>
<path d="M118 581 L514.2597402597403 581 Q518.2597402597403 581 518.2597402597403 585 L518.2597402597403 590 Q518.2597402597403 594 514.2597402597403 594 L118 594 Z" fill="#22d3ee" fill-opacity="0.620"/>
<text x="526.2597402597403" y="591.5" font-family="Inter, system-ui, -apple-system, Segoe UI, Roboto, Arial, sans-serif" font-size="10" fill="#94a3b8" style="font-variant-numeric:tabular-nums">335</text>
<text x="108" y="614.5" font-family="Inter, system-ui, -apple-system, Segoe UI, Roboto, Arial, sans-serif" font-size="10" font-weight="400" fill="#94a3b8" text-anchor="end">BAL</text>
<path d="M118 604 L507.09090909090907 604 Q511.09090909090907 604 511.09090909090907 608 L511.09090909090907 613 Q511.09090909090907 617 507.09090909090907 617 L118 617 Z" fill="#22d3ee" fill-opacity="0.510"/>
<text x="519.090909090909" y="614.5" font-family="Inter, system-ui, -apple-system, Segoe UI, Roboto, Arial, sans-serif" font-size="10" fill="#94a3b8" style="font-variant-numeric:tabular-nums">329</text>
<text x="108" y="637.5" font-family="Inter, system-ui, -apple-system, Segoe UI, Roboto, Arial, sans-serif" font-size="10" font-weight="400" fill="#94a3b8" text-anchor="end">PHI</text>
<path d="M118 627 L498.7272727272727 627 Q502.7272727272727 627 502.7272727272727 631 L502.7272727272727 636 Q502.7272727272727 640 498.7272727272727 640 L118 640 Z" fill="#22d3ee" fill-opacity="0.400"/>
<text x="510.7272727272727" y="637.5" font-family="Inter, system-ui, -apple-system, Segoe UI, Roboto, Arial, sans-serif" font-size="10" fill="#94a3b8" style="font-variant-numeric:tabular-nums">322</text>
<rect x="648" y="468" width="592" height="192" rx="14" fill="#0e1421" stroke="#1e293b" stroke-width="1"/>
<text x="668" y="494" font-family="Inter, system-ui, -apple-system, Segoe UI, Roboto, Arial, sans-serif" font-size="12.5" font-weight="500" fill="#e2e8f0" text-anchor="start">Runs allowed — fewest is best</text>
<text x="716" y="522.5" font-family="Inter, system-ui, -apple-system, Segoe UI, Roboto, Arial, sans-serif" font-size="10" font-weight="400" fill="#94a3b8" text-anchor="end">SEA</text>
<path d="M726 512 L1042.2077922077922 512 Q1046.2077922077922 512 1046.2077922077922 516 L1046.2077922077922 521 Q1046.2077922077922 525 1042.2077922077922 525 L726 525 Z" fill="#d946ef" fill-opacity="0.950"/>
<text x="1054.2077922077922" y="522.5" font-family="Inter, system-ui, -apple-system, Segoe UI, Roboto, Arial, sans-serif" font-size="10" fill="#94a3b8" style="font-variant-numeric:tabular-nums">268</text>
<text x="716" y="545.5" font-family="Inter, system-ui, -apple-system, Segoe UI, Roboto, Arial, sans-serif" font-size="10" font-weight="400" fill="#94a3b8" text-anchor="end">LAD</text>
<path d="M726 535 L1049.3766233766235 535 Q1053.3766233766235 535 1053.3766233766235 539 L1053.3766233766235 544 Q1053.3766233766235 548 1049.3766233766235 548 L726 548 Z" fill="#d946ef" fill-opacity="0.840"/>
<text x="1061.3766233766235" y="545.5" font-family="Inter, system-ui, -apple-system, Segoe UI, Roboto, Arial, sans-serif" font-size="10" fill="#94a3b8" style="font-variant-numeric:tabular-nums">274</text>
<text x="716" y="568.5" font-family="Inter, system-ui, -apple-system, Segoe UI, Roboto, Arial, sans-serif" font-size="10" font-weight="400" fill="#94a3b8" text-anchor="end">CLE</text>
<path d="M726 558 L1057.7402597402597 558 Q1061.7402597402597 558 1061.7402597402597 562 L1061.7402597402597 567 Q1061.7402597402597 571 1057.7402597402597 571 L726 571 Z" fill="#d946ef" fill-opacity="0.730"/>
<text x="1069.7402597402597" y="568.5" font-family="Inter, system-ui, -apple-system, Segoe UI, Roboto, Arial, sans-serif" font-size="10" fill="#94a3b8" style="font-variant-numeric:tabular-nums">281</text>
<text x="716" y="591.5" font-family="Inter, system-ui, -apple-system, Segoe UI, Roboto, Arial, sans-serif" font-size="10" font-weight="400" fill="#94a3b8" text-anchor="end">ATL</text>
<path d="M726 581 L1067.2987012987014 581 Q1071.2987012987014 581 1071.2987012987014 585 L1071.2987012987014 590 Q1071.2987012987014 594 1067.2987012987014 594 L726 594 Z" fill="#d946ef" fill-opacity="0.620"/>
<text x="1079.2987012987014" y="591.5" font-family="Inter, system-ui, -apple-system, Segoe UI, Roboto, Arial, sans-serif" font-size="10" fill="#94a3b8" style="font-variant-numeric:tabular-nums">289</text>
<text x="716" y="614.5" font-family="Inter, system-ui, -apple-system, Segoe UI, Roboto, Arial, sans-serif" font-size="10" font-weight="400" fill="#94a3b8" text-anchor="end">BAL</text>
<path d="M726 604 L1074.4675324675325 604 Q1078.4675324675325 604 1078.4675324675325 608 L1078.4675324675325 613 Q1078.4675324675325 617 1074.4675324675325 617 L726 617 Z" fill="#d946ef" fill-opacity="0.510"/>
<text x="1086.4675324675325" y="614.5" font-family="Inter, system-ui, -apple-system, Segoe UI, Roboto, Arial, sans-serif" font-size="10" fill="#94a3b8" style="font-variant-numeric:tabular-nums">295</text>
<text x="716" y="637.5" font-family="Inter, system-ui, -apple-system, Segoe UI, Roboto, Arial, sans-serif" font-size="10" font-weight="400" fill="#94a3b8" text-anchor="end">MIL</text>
<path d="M726 627 L1082.8311688311687 627 Q1086.8311688311687 627 1086.8311688311687 631 L1086.8311688311687 636 Q1086.8311688311687 640 1082.8311688311687 640 L726 640 Z" fill="#d946ef" fill-opacity="0.400"/>
<text x="1094.8311688311687" y="637.5" font-family="Inter, system-ui, -apple-system, Segoe UI, Roboto, Arial, sans-serif" font-size="10" fill="#94a3b8" style="font-variant-numeric:tabular-nums">302</text>
</svg>